<mxfile host="Electron" agent="Mozilla/5.0 (Windows NT 10.0; Win64; x64) AppleWebKit/537.36 (KHTML, like Gecko) draw.io/24.7.17 Chrome/128.0.6613.36 Electron/32.0.1 Safari/537.36" version="24.7.17">
  <diagram id="prtHgNgQTEPvFCAcTncT" name="Page-1">
    <mxGraphModel dx="1035" dy="616" grid="1" gridSize="10" guides="1" tooltips="1" connect="1" arrows="1" fold="1" page="1" pageScale="1" pageWidth="827" pageHeight="1169" background="none" math="0" shadow="0">
      <root>
        <mxCell id="0" />
        <mxCell id="1" parent="0" />
        <mxCell id="5izV9zopjLMWYRSY9Nly-1" value="&lt;font style=&quot;font-size: 15px;&quot;&gt;Chatbot Database&lt;/font&gt;" style="rounded=0;whiteSpace=wrap;html=1;" vertex="1" parent="1">
          <mxGeometry y="120" width="480" height="320" as="geometry" />
        </mxCell>
        <mxCell id="5izV9zopjLMWYRSY9Nly-2" value="&lt;font style=&quot;font-size: 20px;&quot;&gt;RDBMS&lt;/font&gt;" style="shape=cylinder3;whiteSpace=wrap;html=1;boundedLbl=1;backgroundOutline=1;size=15;" vertex="1" parent="1">
          <mxGeometry x="365" y="132.5" width="80" height="110" as="geometry" />
        </mxCell>
        <mxCell id="5izV9zopjLMWYRSY9Nly-3" value="Document-Oriented Database,(NOSQL)&lt;div&gt;&lt;br&gt;&lt;/div&gt;" style="shape=cylinder3;whiteSpace=wrap;html=1;boundedLbl=1;backgroundOutline=1;size=15;" vertex="1" parent="1">
          <mxGeometry x="360" y="300" width="90" height="120" as="geometry" />
        </mxCell>
        <mxCell id="5izV9zopjLMWYRSY9Nly-5" value="Authentication and Authorisation" style="rhombus;whiteSpace=wrap;html=1;" vertex="1" parent="1">
          <mxGeometry x="530" y="120" width="140" height="135" as="geometry" />
        </mxCell>
        <mxCell id="5izV9zopjLMWYRSY9Nly-6" value="" style="endArrow=classic;startArrow=classic;html=1;rounded=0;" edge="1" parent="1" source="5izV9zopjLMWYRSY9Nly-2" target="5izV9zopjLMWYRSY9Nly-5">
          <mxGeometry width="50" height="50" relative="1" as="geometry">
            <mxPoint x="390" y="300" as="sourcePoint" />
            <mxPoint x="440" y="250" as="targetPoint" />
          </mxGeometry>
        </mxCell>
        <mxCell id="5izV9zopjLMWYRSY9Nly-8" value="&lt;font style=&quot;font-size: 20px;&quot;&gt;A&lt;br&gt;P&lt;br&gt;I&lt;br&gt;&lt;br&gt;&lt;br&gt;L&lt;br&gt;a&lt;br&gt;y&lt;br&gt;e&lt;br&gt;r&lt;/font&gt;" style="rounded=0;whiteSpace=wrap;html=1;" vertex="1" parent="1">
          <mxGeometry x="920" y="120" width="40" height="410" as="geometry" />
        </mxCell>
        <mxCell id="5izV9zopjLMWYRSY9Nly-9" value="" style="endArrow=classic;startArrow=classic;html=1;rounded=0;exitX=1;exitY=0.5;exitDx=0;exitDy=0;entryX=0.5;entryY=0;entryDx=0;entryDy=0;" edge="1" parent="1" source="5izV9zopjLMWYRSY9Nly-5" target="5izV9zopjLMWYRSY9Nly-10">
          <mxGeometry width="50" height="50" relative="1" as="geometry">
            <mxPoint x="660" y="280" as="sourcePoint" />
            <mxPoint x="710" y="230" as="targetPoint" />
            <Array as="points">
              <mxPoint x="760" y="188" />
            </Array>
          </mxGeometry>
        </mxCell>
        <mxCell id="5izV9zopjLMWYRSY9Nly-10" value="Controller and Management" style="shape=process;whiteSpace=wrap;html=1;backgroundOutline=1;" vertex="1" parent="1">
          <mxGeometry x="697" y="300" width="130" height="120" as="geometry" />
        </mxCell>
        <mxCell id="5izV9zopjLMWYRSY9Nly-12" value="" style="endArrow=classic;startArrow=classic;html=1;rounded=0;entryX=0;entryY=0.5;entryDx=0;entryDy=0;" edge="1" parent="1" source="5izV9zopjLMWYRSY9Nly-3" target="5izV9zopjLMWYRSY9Nly-10">
          <mxGeometry width="50" height="50" relative="1" as="geometry">
            <mxPoint x="600" y="280" as="sourcePoint" />
            <mxPoint x="650" y="230" as="targetPoint" />
            <Array as="points">
              <mxPoint x="640" y="360" />
            </Array>
          </mxGeometry>
        </mxCell>
        <mxCell id="5izV9zopjLMWYRSY9Nly-13" value="" style="shape=doubleArrow;direction=south;whiteSpace=wrap;html=1;" vertex="1" parent="1">
          <mxGeometry x="382.5" y="240" width="45" height="60" as="geometry" />
        </mxCell>
        <mxCell id="5izV9zopjLMWYRSY9Nly-15" value="&lt;font style=&quot;font-size: 19px;&quot;&gt;DataWare house&lt;/font&gt;" style="shape=cylinder3;whiteSpace=wrap;html=1;boundedLbl=1;backgroundOutline=1;size=15;" vertex="1" parent="1">
          <mxGeometry x="30" y="160" width="140" height="240" as="geometry" />
        </mxCell>
        <mxCell id="5izV9zopjLMWYRSY9Nly-16" value="" style="endArrow=classic;startArrow=classic;html=1;rounded=0;" edge="1" parent="1" source="5izV9zopjLMWYRSY9Nly-10" target="5izV9zopjLMWYRSY9Nly-8">
          <mxGeometry width="50" height="50" relative="1" as="geometry">
            <mxPoint x="890" y="390" as="sourcePoint" />
            <mxPoint x="940" y="340" as="targetPoint" />
          </mxGeometry>
        </mxCell>
      </root>
    </mxGraphModel>
  </diagram>
</mxfile>
